{
	"asset":{
		"generator":"Khronos glTF Blender I/O v4.2.70",
		"version":"2.0"
	},
	"scene":0,
	"scenes":[
		{
			"name":"Scene",
			"nodes":[
				5
			]
		}
	],
	"nodes":[
		{
			"name":"\u30dc\u30fc\u30f3.003",
			"rotation":[
				0.0046294815838336945,
				-4.336855218851474e-19,
				-1.103754310172178e-09,
				0.9999892711639404
			],
			"translation":[
				1.7218194584209799e-18,
				0.48766595125198364,
				0
			]
		},
		{
			"children":[
				0
			],
			"name":"\u30dc\u30fc\u30f3.002",
			"rotation":[
				-0.004807525780051947,
				2.1316094031488715e-14,
				1.146203465474116e-09,
				0.9999884366989136
			],
			"scale":[
				1,
				1.0000001192092896,
				0.9999999403953552
			],
			"translation":[
				-1.0525249269683167e-16,
				0.4740150570869446,
				-4.656612873077393e-10
			]
		},
		{
			"children":[
				1
			],
			"name":"\u30dc\u30fc\u30f3.001",
			"rotation":[
				0.004807525780051947,
				-1.192079395195833e-07,
				-5.731016217147555e-10,
				0.9999884366989136
			],
			"scale":[
				1,
				1,
				0.9999999403953552
			],
			"translation":[
				0,
				0.5077763795852661,
				0
			]
		},
		{
			"children":[
				2
			],
			"name":"\u30dc\u30fc\u30f3"
		},
		{
			"mesh":0,
			"name":"Cube",
			"skin":0
		},
		{
			"children":[
				4,
				3
			],
			"name":"\u30a2\u30fc\u30de\u30c1\u30e5\u30a2"
		}
	],
	"animations":[
		{
			"channels":[
				{
					"sampler":0,
					"target":{
						"node":3,
						"path":"translation"
					}
				},
				{
					"sampler":1,
					"target":{
						"node":3,
						"path":"rotation"
					}
				},
				{
					"sampler":2,
					"target":{
						"node":3,
						"path":"scale"
					}
				},
				{
					"sampler":3,
					"target":{
						"node":2,
						"path":"translation"
					}
				},
				{
					"sampler":4,
					"target":{
						"node":2,
						"path":"rotation"
					}
				},
				{
					"sampler":5,
					"target":{
						"node":2,
						"path":"scale"
					}
				},
				{
					"sampler":6,
					"target":{
						"node":1,
						"path":"translation"
					}
				},
				{
					"sampler":7,
					"target":{
						"node":1,
						"path":"rotation"
					}
				},
				{
					"sampler":8,
					"target":{
						"node":1,
						"path":"scale"
					}
				},
				{
					"sampler":9,
					"target":{
						"node":0,
						"path":"translation"
					}
				},
				{
					"sampler":10,
					"target":{
						"node":0,
						"path":"rotation"
					}
				},
				{
					"sampler":11,
					"target":{
						"node":0,
						"path":"scale"
					}
				}
			],
			"name":"\u30a2\u30fc\u30de\u30c1\u30e5\u30a2\u30a2\u30af\u30b7\u30e7\u30f3",
			"samplers":[
				{
					"input":7,
					"interpolation":"STEP",
					"output":8
				},
				{
					"input":7,
					"interpolation":"STEP",
					"output":9
				},
				{
					"input":7,
					"interpolation":"STEP",
					"output":10
				},
				{
					"input":7,
					"interpolation":"STEP",
					"output":11
				},
				{
					"input":12,
					"interpolation":"LINEAR",
					"output":13
				},
				{
					"input":7,
					"interpolation":"STEP",
					"output":14
				},
				{
					"input":7,
					"interpolation":"STEP",
					"output":15
				},
				{
					"input":12,
					"interpolation":"LINEAR",
					"output":16
				},
				{
					"input":7,
					"interpolation":"STEP",
					"output":17
				},
				{
					"input":7,
					"interpolation":"STEP",
					"output":18
				},
				{
					"input":12,
					"interpolation":"LINEAR",
					"output":19
				},
				{
					"input":7,
					"interpolation":"STEP",
					"output":20
				}
			]
		}
	],
	"materials":[
		{
			"doubleSided":true,
			"name":"Material",
			"pbrMetallicRoughness":{
				"baseColorTexture":{
					"index":0
				},
				"metallicFactor":0,
				"roughnessFactor":0.5
			}
		}
	],
	"meshes":[
		{
			"name":"Cube",
			"primitives":[
				{
					"attributes":{
						"POSITION":0,
						"NORMAL":1,
						"TEXCOORD_0":2,
						"JOINTS_0":3,
						"WEIGHTS_0":4
					},
					"indices":5,
					"material":0
				}
			]
		}
	],
	"textures":[
		{
			"sampler":0,
			"source":0
		}
	],
	"images":[
		{
			"mimeType":"image/png",
			"name":"tex",
			"uri":"tex.png"
		}
	],
	"skins":[
		{
			"inverseBindMatrices":6,
			"joints":[
				3,
				2,
				1,
				0
			],
			"name":"\u30a2\u30fc\u30de\u30c1\u30e5\u30a2"
		}
	],
	"accessors":[
		{
			"bufferView":0,
			"componentType":5126,
			"count":48,
			"max":[
				0.25,
				2,
				0.25
			],
			"min":[
				-0.25,
				0,
				-0.25
			],
			"type":"VEC3"
		},
		{
			"bufferView":1,
			"componentType":5126,
			"count":48,
			"type":"VEC3"
		},
		{
			"bufferView":2,
			"componentType":5126,
			"count":48,
			"type":"VEC2"
		},
		{
			"bufferView":3,
			"componentType":5121,
			"count":48,
			"type":"VEC4"
		},
		{
			"bufferView":4,
			"componentType":5126,
			"count":48,
			"type":"VEC4"
		},
		{
			"bufferView":5,
			"componentType":5123,
			"count":108,
			"type":"SCALAR"
		},
		{
			"bufferView":6,
			"componentType":5126,
			"count":4,
			"type":"MAT4"
		},
		{
			"bufferView":7,
			"componentType":5126,
			"count":2,
			"max":[
				5
			],
			"min":[
				0.041666666666666664
			],
			"type":"SCALAR"
		},
		{
			"bufferView":8,
			"componentType":5126,
			"count":2,
			"type":"VEC3"
		},
		{
			"bufferView":9,
			"componentType":5126,
			"count":2,
			"type":"VEC4"
		},
		{
			"bufferView":10,
			"componentType":5126,
			"count":2,
			"type":"VEC3"
		},
		{
			"bufferView":11,
			"componentType":5126,
			"count":2,
			"type":"VEC3"
		},
		{
			"bufferView":12,
			"componentType":5126,
			"count":120,
			"max":[
				5
			],
			"min":[
				0.041666666666666664
			],
			"type":"SCALAR"
		},
		{
			"bufferView":13,
			"componentType":5126,
			"count":120,
			"type":"VEC4"
		},
		{
			"bufferView":14,
			"componentType":5126,
			"count":2,
			"type":"VEC3"
		},
		{
			"bufferView":15,
			"componentType":5126,
			"count":2,
			"type":"VEC3"
		},
		{
			"bufferView":16,
			"componentType":5126,
			"count":120,
			"type":"VEC4"
		},
		{
			"bufferView":17,
			"componentType":5126,
			"count":2,
			"type":"VEC3"
		},
		{
			"bufferView":18,
			"componentType":5126,
			"count":2,
			"type":"VEC3"
		},
		{
			"bufferView":19,
			"componentType":5126,
			"count":120,
			"type":"VEC4"
		},
		{
			"bufferView":20,
			"componentType":5126,
			"count":2,
			"type":"VEC3"
		}
	],
	"bufferViews":[
		{
			"buffer":0,
			"byteLength":576,
			"byteOffset":0,
			"target":34962
		},
		{
			"buffer":0,
			"byteLength":576,
			"byteOffset":576,
			"target":34962
		},
		{
			"buffer":0,
			"byteLength":384,
			"byteOffset":1152,
			"target":34962
		},
		{
			"buffer":0,
			"byteLength":192,
			"byteOffset":1536,
			"target":34962
		},
		{
			"buffer":0,
			"byteLength":768,
			"byteOffset":1728,
			"target":34962
		},
		{
			"buffer":0,
			"byteLength":216,
			"byteOffset":2496,
			"target":34963
		},
		{
			"buffer":0,
			"byteLength":256,
			"byteOffset":2712
		},
		{
			"buffer":0,
			"byteLength":8,
			"byteOffset":2968
		},
		{
			"buffer":0,
			"byteLength":24,
			"byteOffset":2976
		},
		{
			"buffer":0,
			"byteLength":32,
			"byteOffset":3000
		},
		{
			"buffer":0,
			"byteLength":24,
			"byteOffset":3032
		},
		{
			"buffer":0,
			"byteLength":24,
			"byteOffset":3056
		},
		{
			"buffer":0,
			"byteLength":480,
			"byteOffset":3080
		},
		{
			"buffer":0,
			"byteLength":1920,
			"byteOffset":3560
		},
		{
			"buffer":0,
			"byteLength":24,
			"byteOffset":5480
		},
		{
			"buffer":0,
			"byteLength":24,
			"byteOffset":5504
		},
		{
			"buffer":0,
			"byteLength":1920,
			"byteOffset":5528
		},
		{
			"buffer":0,
			"byteLength":24,
			"byteOffset":7448
		},
		{
			"buffer":0,
			"byteLength":24,
			"byteOffset":7472
		},
		{
			"buffer":0,
			"byteLength":1920,
			"byteOffset":7496
		},
		{
			"buffer":0,
			"byteLength":24,
			"byteOffset":9416
		}
	],
	"samplers":[
		{
			"magFilter":9729,
			"minFilter":9987
		}
	],
	"buffers":[
		{
			"byteLength":9440,
			"uri":"BoxMan.bin"
		}
	]
}
