{
	"asset":{
		"generator":"Khronos glTF Blender I/O v4.3.47",
		"version":"2.0"
	},
	"scene":0,
	"scenes":[
		{
			"name":"Scene",
			"nodes":[
				5
			]
		}
	],
	"nodes":[
		{
			"name":"bone.003",
			"rotation":[
				0.0046294815838336945,
				-4.336855218851474e-19,
				-1.103754310172178e-09,
				0.9999892711639404
			],
			"translation":[
				1.7218194584209799e-18,
				0.48766595125198364,
				0
			]
		},
		{
			"children":[
				0
			],
			"name":"bone.002",
			"rotation":[
				-0.004807525780051947,
				2.1316094031488715e-14,
				1.146203465474116e-09,
				0.9999884366989136
			],
			"scale":[
				1,
				1.0000001192092896,
				0.9999999403953552
			],
			"translation":[
				-1.0525249269683167e-16,
				0.4740150570869446,
				-4.656612873077393e-10
			]
		},
		{
			"children":[
				1
			],
			"name":"bone.001",
			"rotation":[
				0.004807525780051947,
				-1.192079395195833e-07,
				-5.731016217147555e-10,
				0.9999884366989136
			],
			"scale":[
				1,
				1,
				0.9999999403953552
			],
			"translation":[
				0,
				0.5077763795852661,
				0
			]
		},
		{
			"children":[
				2
			],
			"name":"bone"
		},
		{
			"mesh":0,
			"name":"Cube",
			"skin":0
		},
		{
			"children":[
				4,
				3
			],
			"name":"\u30a2\u30fc\u30de\u30c1\u30e5\u30a2"
		}
	],
	"animations":[
		{
			"channels":[
				{
					"sampler":0,
					"target":{
						"node":3,
						"path":"translation"
					}
				},
				{
					"sampler":1,
					"target":{
						"node":3,
						"path":"rotation"
					}
				},
				{
					"sampler":2,
					"target":{
						"node":3,
						"path":"scale"
					}
				},
				{
					"sampler":3,
					"target":{
						"node":2,
						"path":"translation"
					}
				},
				{
					"sampler":4,
					"target":{
						"node":2,
						"path":"rotation"
					}
				},
				{
					"sampler":5,
					"target":{
						"node":2,
						"path":"scale"
					}
				},
				{
					"sampler":6,
					"target":{
						"node":1,
						"path":"translation"
					}
				},
				{
					"sampler":7,
					"target":{
						"node":1,
						"path":"rotation"
					}
				},
				{
					"sampler":8,
					"target":{
						"node":1,
						"path":"scale"
					}
				},
				{
					"sampler":9,
					"target":{
						"node":0,
						"path":"translation"
					}
				},
				{
					"sampler":10,
					"target":{
						"node":0,
						"path":"rotation"
					}
				},
				{
					"sampler":11,
					"target":{
						"node":0,
						"path":"scale"
					}
				}
			],
			"name":"Action.001",
			"samplers":[
				{
					"input":7,
					"interpolation":"STEP",
					"output":8
				},
				{
					"input":7,
					"interpolation":"STEP",
					"output":9
				},
				{
					"input":7,
					"interpolation":"STEP",
					"output":10
				},
				{
					"input":7,
					"interpolation":"STEP",
					"output":11
				},
				{
					"input":7,
					"interpolation":"STEP",
					"output":12
				},
				{
					"input":7,
					"interpolation":"STEP",
					"output":13
				},
				{
					"input":7,
					"interpolation":"STEP",
					"output":14
				},
				{
					"input":7,
					"interpolation":"STEP",
					"output":15
				},
				{
					"input":7,
					"interpolation":"STEP",
					"output":16
				},
				{
					"input":7,
					"interpolation":"STEP",
					"output":17
				},
				{
					"input":18,
					"interpolation":"LINEAR",
					"output":19
				},
				{
					"input":7,
					"interpolation":"STEP",
					"output":20
				}
			]
		},
		{
			"channels":[
				{
					"sampler":0,
					"target":{
						"node":3,
						"path":"translation"
					}
				},
				{
					"sampler":1,
					"target":{
						"node":3,
						"path":"rotation"
					}
				},
				{
					"sampler":2,
					"target":{
						"node":3,
						"path":"scale"
					}
				},
				{
					"sampler":3,
					"target":{
						"node":2,
						"path":"translation"
					}
				},
				{
					"sampler":4,
					"target":{
						"node":2,
						"path":"rotation"
					}
				},
				{
					"sampler":5,
					"target":{
						"node":2,
						"path":"scale"
					}
				},
				{
					"sampler":6,
					"target":{
						"node":1,
						"path":"translation"
					}
				},
				{
					"sampler":7,
					"target":{
						"node":1,
						"path":"rotation"
					}
				},
				{
					"sampler":8,
					"target":{
						"node":1,
						"path":"scale"
					}
				},
				{
					"sampler":9,
					"target":{
						"node":0,
						"path":"translation"
					}
				},
				{
					"sampler":10,
					"target":{
						"node":0,
						"path":"rotation"
					}
				},
				{
					"sampler":11,
					"target":{
						"node":0,
						"path":"scale"
					}
				}
			],
			"name":"Action.002",
			"samplers":[
				{
					"input":21,
					"interpolation":"STEP",
					"output":22
				},
				{
					"input":21,
					"interpolation":"STEP",
					"output":23
				},
				{
					"input":21,
					"interpolation":"STEP",
					"output":24
				},
				{
					"input":21,
					"interpolation":"STEP",
					"output":25
				},
				{
					"input":21,
					"interpolation":"STEP",
					"output":26
				},
				{
					"input":21,
					"interpolation":"STEP",
					"output":27
				},
				{
					"input":21,
					"interpolation":"STEP",
					"output":28
				},
				{
					"input":21,
					"interpolation":"STEP",
					"output":29
				},
				{
					"input":21,
					"interpolation":"STEP",
					"output":30
				},
				{
					"input":21,
					"interpolation":"STEP",
					"output":31
				},
				{
					"input":32,
					"interpolation":"LINEAR",
					"output":33
				},
				{
					"input":21,
					"interpolation":"STEP",
					"output":34
				}
			]
		}
	],
	"materials":[
		{
			"doubleSided":true,
			"name":"Material",
			"pbrMetallicRoughness":{
				"baseColorTexture":{
					"index":0
				},
				"metallicFactor":0,
				"roughnessFactor":0.5
			}
		}
	],
	"meshes":[
		{
			"name":"Cube",
			"primitives":[
				{
					"attributes":{
						"POSITION":0,
						"NORMAL":1,
						"TEXCOORD_0":2,
						"JOINTS_0":3,
						"WEIGHTS_0":4
					},
					"indices":5,
					"material":0
				}
			]
		}
	],
	"textures":[
		{
			"sampler":0,
			"source":0
		}
	],
	"images":[
		{
			"mimeType":"image/png",
			"name":"tex",
			"uri":"tex.png"
		}
	],
	"skins":[
		{
			"inverseBindMatrices":6,
			"joints":[
				3,
				2,
				1,
				0
			],
			"name":"\u30a2\u30fc\u30de\u30c1\u30e5\u30a2"
		}
	],
	"accessors":[
		{
			"bufferView":0,
			"componentType":5126,
			"count":48,
			"max":[
				0.25,
				2,
				0.25
			],
			"min":[
				-0.25,
				0,
				-0.25
			],
			"type":"VEC3"
		},
		{
			"bufferView":1,
			"componentType":5126,
			"count":48,
			"type":"VEC3"
		},
		{
			"bufferView":2,
			"componentType":5126,
			"count":48,
			"type":"VEC2"
		},
		{
			"bufferView":3,
			"componentType":5121,
			"count":48,
			"type":"VEC4"
		},
		{
			"bufferView":4,
			"componentType":5126,
			"count":48,
			"type":"VEC4"
		},
		{
			"bufferView":5,
			"componentType":5123,
			"count":108,
			"type":"SCALAR"
		},
		{
			"bufferView":6,
			"componentType":5126,
			"count":4,
			"type":"MAT4"
		},
		{
			"bufferView":7,
			"componentType":5126,
			"count":2,
			"max":[
				2.5
			],
			"min":[
				0
			],
			"type":"SCALAR"
		},
		{
			"bufferView":8,
			"componentType":5126,
			"count":2,
			"type":"VEC3"
		},
		{
			"bufferView":9,
			"componentType":5126,
			"count":2,
			"type":"VEC4"
		},
		{
			"bufferView":10,
			"componentType":5126,
			"count":2,
			"type":"VEC3"
		},
		{
			"bufferView":11,
			"componentType":5126,
			"count":2,
			"type":"VEC3"
		},
		{
			"bufferView":12,
			"componentType":5126,
			"count":2,
			"type":"VEC4"
		},
		{
			"bufferView":13,
			"componentType":5126,
			"count":2,
			"type":"VEC3"
		},
		{
			"bufferView":14,
			"componentType":5126,
			"count":2,
			"type":"VEC3"
		},
		{
			"bufferView":15,
			"componentType":5126,
			"count":2,
			"type":"VEC4"
		},
		{
			"bufferView":16,
			"componentType":5126,
			"count":2,
			"type":"VEC3"
		},
		{
			"bufferView":17,
			"componentType":5126,
			"count":2,
			"type":"VEC3"
		},
		{
			"bufferView":18,
			"componentType":5126,
			"count":61,
			"max":[
				2.5
			],
			"min":[
				0
			],
			"type":"SCALAR"
		},
		{
			"bufferView":19,
			"componentType":5126,
			"count":61,
			"type":"VEC4"
		},
		{
			"bufferView":20,
			"componentType":5126,
			"count":2,
			"type":"VEC3"
		},
		{
			"bufferView":21,
			"componentType":5126,
			"count":2,
			"max":[
				1.25
			],
			"min":[
				0
			],
			"type":"SCALAR"
		},
		{
			"bufferView":22,
			"componentType":5126,
			"count":2,
			"type":"VEC3"
		},
		{
			"bufferView":23,
			"componentType":5126,
			"count":2,
			"type":"VEC4"
		},
		{
			"bufferView":24,
			"componentType":5126,
			"count":2,
			"type":"VEC3"
		},
		{
			"bufferView":25,
			"componentType":5126,
			"count":2,
			"type":"VEC3"
		},
		{
			"bufferView":26,
			"componentType":5126,
			"count":2,
			"type":"VEC4"
		},
		{
			"bufferView":27,
			"componentType":5126,
			"count":2,
			"type":"VEC3"
		},
		{
			"bufferView":28,
			"componentType":5126,
			"count":2,
			"type":"VEC3"
		},
		{
			"bufferView":29,
			"componentType":5126,
			"count":2,
			"type":"VEC4"
		},
		{
			"bufferView":30,
			"componentType":5126,
			"count":2,
			"type":"VEC3"
		},
		{
			"bufferView":31,
			"componentType":5126,
			"count":2,
			"type":"VEC3"
		},
		{
			"bufferView":32,
			"componentType":5126,
			"count":31,
			"max":[
				1.25
			],
			"min":[
				0
			],
			"type":"SCALAR"
		},
		{
			"bufferView":33,
			"componentType":5126,
			"count":31,
			"type":"VEC4"
		},
		{
			"bufferView":34,
			"componentType":5126,
			"count":2,
			"type":"VEC3"
		}
	],
	"bufferViews":[
		{
			"buffer":0,
			"byteLength":576,
			"byteOffset":0,
			"target":34962
		},
		{
			"buffer":0,
			"byteLength":576,
			"byteOffset":576,
			"target":34962
		},
		{
			"buffer":0,
			"byteLength":384,
			"byteOffset":1152,
			"target":34962
		},
		{
			"buffer":0,
			"byteLength":192,
			"byteOffset":1536,
			"target":34962
		},
		{
			"buffer":0,
			"byteLength":768,
			"byteOffset":1728,
			"target":34962
		},
		{
			"buffer":0,
			"byteLength":216,
			"byteOffset":2496,
			"target":34963
		},
		{
			"buffer":0,
			"byteLength":256,
			"byteOffset":2712
		},
		{
			"buffer":0,
			"byteLength":8,
			"byteOffset":2968
		},
		{
			"buffer":0,
			"byteLength":24,
			"byteOffset":2976
		},
		{
			"buffer":0,
			"byteLength":32,
			"byteOffset":3000
		},
		{
			"buffer":0,
			"byteLength":24,
			"byteOffset":3032
		},
		{
			"buffer":0,
			"byteLength":24,
			"byteOffset":3056
		},
		{
			"buffer":0,
			"byteLength":32,
			"byteOffset":3080
		},
		{
			"buffer":0,
			"byteLength":24,
			"byteOffset":3112
		},
		{
			"buffer":0,
			"byteLength":24,
			"byteOffset":3136
		},
		{
			"buffer":0,
			"byteLength":32,
			"byteOffset":3160
		},
		{
			"buffer":0,
			"byteLength":24,
			"byteOffset":3192
		},
		{
			"buffer":0,
			"byteLength":24,
			"byteOffset":3216
		},
		{
			"buffer":0,
			"byteLength":244,
			"byteOffset":3240
		},
		{
			"buffer":0,
			"byteLength":976,
			"byteOffset":3484
		},
		{
			"buffer":0,
			"byteLength":24,
			"byteOffset":4460
		},
		{
			"buffer":0,
			"byteLength":8,
			"byteOffset":4484
		},
		{
			"buffer":0,
			"byteLength":24,
			"byteOffset":4492
		},
		{
			"buffer":0,
			"byteLength":32,
			"byteOffset":4516
		},
		{
			"buffer":0,
			"byteLength":24,
			"byteOffset":4548
		},
		{
			"buffer":0,
			"byteLength":24,
			"byteOffset":4572
		},
		{
			"buffer":0,
			"byteLength":32,
			"byteOffset":4596
		},
		{
			"buffer":0,
			"byteLength":24,
			"byteOffset":4628
		},
		{
			"buffer":0,
			"byteLength":24,
			"byteOffset":4652
		},
		{
			"buffer":0,
			"byteLength":32,
			"byteOffset":4676
		},
		{
			"buffer":0,
			"byteLength":24,
			"byteOffset":4708
		},
		{
			"buffer":0,
			"byteLength":24,
			"byteOffset":4732
		},
		{
			"buffer":0,
			"byteLength":124,
			"byteOffset":4756
		},
		{
			"buffer":0,
			"byteLength":496,
			"byteOffset":4880
		},
		{
			"buffer":0,
			"byteLength":24,
			"byteOffset":5376
		}
	],
	"samplers":[
		{
			"magFilter":9729,
			"minFilter":9987
		}
	],
	"buffers":[
		{
			"byteLength":5400,
			"uri":"boxMan.bin"
		}
	]
}
