{
	"asset":{
		"generator":"Khronos glTF Blender I/O v4.2.70",
		"version":"2.0"
	},
	"scene":0,
	"scenes":[
		{
			"name":"Scene",
			"nodes":[
				5
			]
		}
	],
	"nodes":[
		{
			"name":"\u30dc\u30fc\u30f3.004",
			"rotation":[
				1.3060511783180573e-08,
				1.1920927533992653e-07,
				1.5569338014469712e-15,
				1
			],
			"scale":[
				1,
				0.9999999403953552,
				1
			],
			"translation":[
				0,
				0.6774295568466187,
				-7.105427357601002e-15
			]
		},
		{
			"children":[
				0
			],
			"name":"\u30dc\u30fc\u30f3.003",
			"rotation":[
				-4.9003361368704645e-09,
				0,
				0,
				1
			],
			"translation":[
				0,
				0.7416811585426331,
				7.105427357601002e-15
			]
		},
		{
			"children":[
				1
			],
			"name":"\u30dc\u30fc\u30f3.002",
			"rotation":[
				-6.539023189588988e-08,
				0,
				0,
				1
			],
			"translation":[
				0,
				0.7669013142585754,
				0
			]
		},
		{
			"children":[
				2
			],
			"name":"\u30dc\u30fc\u30f3",
			"translation":[
				0,
				0.016420144587755203,
				0
			]
		},
		{
			"mesh":0,
			"name":"\u7acb\u65b9\u4f53",
			"skin":0
		},
		{
			"children":[
				4,
				3
			],
			"name":"\u30a2\u30fc\u30de\u30c1\u30e5\u30a2"
		}
	],
	"animations":[
		{
			"channels":[
				{
					"sampler":0,
					"target":{
						"node":3,
						"path":"translation"
					}
				},
				{
					"sampler":1,
					"target":{
						"node":3,
						"path":"rotation"
					}
				},
				{
					"sampler":2,
					"target":{
						"node":3,
						"path":"scale"
					}
				},
				{
					"sampler":3,
					"target":{
						"node":2,
						"path":"translation"
					}
				},
				{
					"sampler":4,
					"target":{
						"node":2,
						"path":"rotation"
					}
				},
				{
					"sampler":5,
					"target":{
						"node":2,
						"path":"scale"
					}
				},
				{
					"sampler":6,
					"target":{
						"node":1,
						"path":"translation"
					}
				},
				{
					"sampler":7,
					"target":{
						"node":1,
						"path":"rotation"
					}
				},
				{
					"sampler":8,
					"target":{
						"node":1,
						"path":"scale"
					}
				},
				{
					"sampler":9,
					"target":{
						"node":0,
						"path":"translation"
					}
				},
				{
					"sampler":10,
					"target":{
						"node":0,
						"path":"rotation"
					}
				},
				{
					"sampler":11,
					"target":{
						"node":0,
						"path":"scale"
					}
				}
			],
			"name":"\u30a2\u30fc\u30de\u30c1\u30e5\u30a2\u30a2\u30af\u30b7\u30e7\u30f3",
			"samplers":[
				{
					"input":7,
					"interpolation":"STEP",
					"output":8
				},
				{
					"input":7,
					"interpolation":"STEP",
					"output":9
				},
				{
					"input":7,
					"interpolation":"STEP",
					"output":10
				},
				{
					"input":7,
					"interpolation":"STEP",
					"output":11
				},
				{
					"input":12,
					"interpolation":"LINEAR",
					"output":13
				},
				{
					"input":7,
					"interpolation":"STEP",
					"output":14
				},
				{
					"input":7,
					"interpolation":"LINEAR",
					"output":15
				},
				{
					"input":12,
					"interpolation":"LINEAR",
					"output":16
				},
				{
					"input":7,
					"interpolation":"STEP",
					"output":17
				},
				{
					"input":7,
					"interpolation":"LINEAR",
					"output":18
				},
				{
					"input":12,
					"interpolation":"LINEAR",
					"output":19
				},
				{
					"input":7,
					"interpolation":"LINEAR",
					"output":20
				}
			]
		}
	],
	"materials":[
		{
			"doubleSided":true,
			"name":"\u30de\u30c6\u30ea\u30a2\u30eb",
			"pbrMetallicRoughness":{
				"baseColorTexture":{
					"index":0
				},
				"metallicFactor":0,
				"roughnessFactor":0.5
			}
		}
	],
	"meshes":[
		{
			"name":"\u7acb\u65b9\u4f53",
			"primitives":[
				{
					"attributes":{
						"POSITION":0,
						"NORMAL":1,
						"TEXCOORD_0":2,
						"JOINTS_0":3,
						"WEIGHTS_0":4
					},
					"indices":5,
					"material":0
				}
			]
		}
	],
	"textures":[
		{
			"sampler":0,
			"source":0
		}
	],
	"images":[
		{
			"mimeType":"image/png",
			"name":"boxTex",
			"uri":"boxTex.png"
		}
	],
	"skins":[
		{
			"inverseBindMatrices":6,
			"joints":[
				3,
				2,
				1,
				0
			],
			"name":"\u30a2\u30fc\u30de\u30c1\u30e5\u30a2"
		}
	],
	"accessors":[
		{
			"bufferView":0,
			"componentType":5126,
			"count":48,
			"max":[
				0.41427937150001526,
				3.0347580909729004,
				0.38732007145881653
			],
			"min":[
				-0.41427937150001526,
				-0.025514721870422363,
				-0.38732007145881653
			],
			"type":"VEC3"
		},
		{
			"bufferView":1,
			"componentType":5126,
			"count":48,
			"type":"VEC3"
		},
		{
			"bufferView":2,
			"componentType":5126,
			"count":48,
			"type":"VEC2"
		},
		{
			"bufferView":3,
			"componentType":5121,
			"count":48,
			"type":"VEC4"
		},
		{
			"bufferView":4,
			"componentType":5126,
			"count":48,
			"type":"VEC4"
		},
		{
			"bufferView":5,
			"componentType":5123,
			"count":108,
			"type":"SCALAR"
		},
		{
			"bufferView":6,
			"componentType":5126,
			"count":4,
			"type":"MAT4"
		},
		{
			"bufferView":7,
			"componentType":5126,
			"count":2,
			"max":[
				3.3333333333333335
			],
			"min":[
				0.041666666666666664
			],
			"type":"SCALAR"
		},
		{
			"bufferView":8,
			"componentType":5126,
			"count":2,
			"type":"VEC3"
		},
		{
			"bufferView":9,
			"componentType":5126,
			"count":2,
			"type":"VEC4"
		},
		{
			"bufferView":10,
			"componentType":5126,
			"count":2,
			"type":"VEC3"
		},
		{
			"bufferView":11,
			"componentType":5126,
			"count":2,
			"type":"VEC3"
		},
		{
			"bufferView":12,
			"componentType":5126,
			"count":80,
			"max":[
				3.3333333333333335
			],
			"min":[
				0.041666666666666664
			],
			"type":"SCALAR"
		},
		{
			"bufferView":13,
			"componentType":5126,
			"count":80,
			"type":"VEC4"
		},
		{
			"bufferView":14,
			"componentType":5126,
			"count":2,
			"type":"VEC3"
		},
		{
			"bufferView":15,
			"componentType":5126,
			"count":2,
			"type":"VEC3"
		},
		{
			"bufferView":16,
			"componentType":5126,
			"count":80,
			"type":"VEC4"
		},
		{
			"bufferView":17,
			"componentType":5126,
			"count":2,
			"type":"VEC3"
		},
		{
			"bufferView":18,
			"componentType":5126,
			"count":2,
			"type":"VEC3"
		},
		{
			"bufferView":19,
			"componentType":5126,
			"count":80,
			"type":"VEC4"
		},
		{
			"bufferView":20,
			"componentType":5126,
			"count":2,
			"type":"VEC3"
		}
	],
	"bufferViews":[
		{
			"buffer":0,
			"byteLength":576,
			"byteOffset":0,
			"target":34962
		},
		{
			"buffer":0,
			"byteLength":576,
			"byteOffset":576,
			"target":34962
		},
		{
			"buffer":0,
			"byteLength":384,
			"byteOffset":1152,
			"target":34962
		},
		{
			"buffer":0,
			"byteLength":192,
			"byteOffset":1536,
			"target":34962
		},
		{
			"buffer":0,
			"byteLength":768,
			"byteOffset":1728,
			"target":34962
		},
		{
			"buffer":0,
			"byteLength":216,
			"byteOffset":2496,
			"target":34963
		},
		{
			"buffer":0,
			"byteLength":256,
			"byteOffset":2712
		},
		{
			"buffer":0,
			"byteLength":8,
			"byteOffset":2968
		},
		{
			"buffer":0,
			"byteLength":24,
			"byteOffset":2976
		},
		{
			"buffer":0,
			"byteLength":32,
			"byteOffset":3000
		},
		{
			"buffer":0,
			"byteLength":24,
			"byteOffset":3032
		},
		{
			"buffer":0,
			"byteLength":24,
			"byteOffset":3056
		},
		{
			"buffer":0,
			"byteLength":320,
			"byteOffset":3080
		},
		{
			"buffer":0,
			"byteLength":1280,
			"byteOffset":3400
		},
		{
			"buffer":0,
			"byteLength":24,
			"byteOffset":4680
		},
		{
			"buffer":0,
			"byteLength":24,
			"byteOffset":4704
		},
		{
			"buffer":0,
			"byteLength":1280,
			"byteOffset":4728
		},
		{
			"buffer":0,
			"byteLength":24,
			"byteOffset":6008
		},
		{
			"buffer":0,
			"byteLength":24,
			"byteOffset":6032
		},
		{
			"buffer":0,
			"byteLength":1280,
			"byteOffset":6056
		},
		{
			"buffer":0,
			"byteLength":24,
			"byteOffset":7336
		}
	],
	"samplers":[
		{
			"magFilter":9729,
			"minFilter":9987
		}
	],
	"buffers":[
		{
			"byteLength":7360,
			"uri":"boxMan.bin"
		}
	]
}
