{
	"asset":{
		"generator":"Khronos glTF Blender I/O v4.3.47",
		"version":"2.0"
	},
	"scene":0,
	"scenes":[
		{
			"name":"Scene",
			"nodes":[
				0
			]
		}
	],
	"nodes":[
		{
			"mesh":0,
			"name":"Plane"
		}
	],
	"materials":[
		{
			"doubleSided":true,
			"name":"Material.001",
			"pbrMetallicRoughness":{
				"baseColorTexture":{
					"index":0
				},
				"metallicFactor":0,
				"roughnessFactor":0.5
			}
		}
	],
	"meshes":[
		{
			"name":"Plane",
			"primitives":[
				{
					"attributes":{
						"POSITION":0,
						"NORMAL":1,
						"TEXCOORD_0":2,
						"TANGENT":3
					},
					"indices":4,
					"material":0
				}
			]
		}
	],
	"textures":[
		{
			"sampler":0,
			"source":0
		}
	],
	"images":[
		{
			"mimeType":"image/png",
			"name":"grass",
			"uri":"grass.png"
		}
	],
	"accessors":[
		{
			"bufferView":0,
			"componentType":5126,
			"count":1378,
			"max":[
				10,
				3.0012094974517822,
				10
			],
			"min":[
				-10,
				-2.8212998586241156e-06,
				-10
			],
			"type":"VEC3"
		},
		{
			"bufferView":1,
			"componentType":5126,
			"count":1378,
			"type":"VEC3"
		},
		{
			"bufferView":2,
			"componentType":5126,
			"count":1378,
			"type":"VEC2"
		},
		{
			"bufferView":3,
			"componentType":5126,
			"count":1378,
			"type":"VEC4"
		},
		{
			"bufferView":4,
			"componentType":5123,
			"count":2646,
			"type":"SCALAR"
		}
	],
	"bufferViews":[
		{
			"buffer":0,
			"byteLength":16536,
			"byteOffset":0,
			"target":34962
		},
		{
			"buffer":0,
			"byteLength":16536,
			"byteOffset":16536,
			"target":34962
		},
		{
			"buffer":0,
			"byteLength":11024,
			"byteOffset":33072,
			"target":34962
		},
		{
			"buffer":0,
			"byteLength":22048,
			"byteOffset":44096,
			"target":34962
		},
		{
			"buffer":0,
			"byteLength":5292,
			"byteOffset":66144,
			"target":34963
		}
	],
	"samplers":[
		{
			"magFilter":9729,
			"minFilter":9987
		}
	],
	"buffers":[
		{
			"byteLength":71436,
			"uri":"terrain.bin"
		}
	]
}
